<?xml version="1.0" standalone="no"?>
<!DOCTYPE svg PUBLIC "-//W3C//DTD SVG 20010904//EN"
 "http://www.w3.org/TR/2001/REC-SVG-20010904/DTD/svg10.dtd">
<svg version="1.0" xmlns="http://www.w3.org/2000/svg"
 width="512.000000pt" height="512.000000pt" viewBox="0 0 512.000000 512.000000"
 preserveAspectRatio="xMidYMid meet">
<metadata>
Created by potrace 1.11, written by Peter Selinger 2001-2013
</metadata>
<g transform="translate(0.000000,512.000000) scale(0.100000,-0.100000)"
fill="#000000" stroke="none">
<path d="M2380 4935 c-191 -64 -343 -188 -415 -340 -22 -47 -22 -47 -14 -102
4 -30 2 -40 -7 -36 -20 7 -37 -65 -38 -157 -1 -77 2 -107 20 -189 8 -36 26
-72 47 -93 9 -10 17 -27 17 -37 0 -25 50 -147 83 -203 45 -77 174 -192 262
-233 42 -19 104 -35 141 -35 36 0 51 -23 28 -42 -97 -80 -224 -228 -295 -343
-72 -117 -73 -120 -44 -139 l24 -16 -19 -56 c-53 -154 -157 -302 -276 -392
-41 -31 -42 -31 -180 -34 l-139 -3 0 -45 0 -45 85 -1 c121 -2 115 -1 99 -20
-11 -14 -8 -20 21 -44 37 -30 38 -30 90 10 135 104 214 177 290 266 39 45 100
133 100 143 0 5 4 11 9 13 5 1 20 27 35 56 29 57 33 59 62 38 15 -12 19 -28
21 -93 2 -43 5 -147 8 -232 l5 -154 -65 -66 c-76 -78 -127 -151 -169 -241
l-31 -66 -233 0 c-221 0 -232 1 -226 18 3 10 7 33 9 50 3 17 9 45 14 62 6 17
13 45 16 61 3 17 12 55 20 85 8 30 15 58 15 63 0 9 -361 9 -376 -1 -19 -12
-26 -48 -11 -60 8 -7 63 -11 143 -11 170 0 166 1 159 -12 -9 -14 -45 -159 -45
-181 0 -24 -21 -34 -31 -15 -10 17 -71 58 -92 61 -6 1 -16 4 -22 8 -5 3 -31 9
-57 12 l-48 7 0 -155 0 -154 43 4 c50 5 93 21 126 46 36 27 41 22 27 -27 -8
-25 -12 -45 -10 -45 2 0 -1 -11 -6 -26 -6 -14 -12 -39 -15 -57 -12 -66 -2 -63
-157 -63 -160 0 -238 -17 -355 -78 -148 -77 -281 -220 -349 -372 -13 -30 -21
-54 -18 -54 4 0 2 -6 -4 -12 -16 -20 -35 -134 -37 -223 -3 -167 52 -350 134
-444 12 -13 21 -27 21 -31 0 -12 98 -108 151 -148 77 -58 184 -108 270 -128
78 -18 243 -25 294 -12 17 4 43 9 59 12 54 10 155 47 191 72 20 13 38 24 42
24 9 0 84 62 128 105 54 53 96 108 134 176 32 57 74 169 64 169 -3 0 -1 6 5
13 8 9 61 12 209 12 125 -1 201 3 205 10 4 5 8 44 8 85 l1 75 30 -34 31 -34
202 -1 201 -1 1 -22 c1 -13 3 -26 4 -30 1 -5 2 -12 1 -16 -3 -18 31 -132 56
-185 35 -78 76 -137 142 -206 54 -56 152 -136 167 -136 4 0 15 -6 23 -14 16
-13 118 -54 154 -62 10 -2 27 -6 38 -9 39 -13 222 -20 264 -12 11 3 40 8 65
12 197 32 410 198 515 400 55 104 76 191 79 325 3 83 -2 119 -28 236 -8 37
-63 152 -97 200 -41 60 -140 160 -204 206 -52 37 -155 92 -155 83 0 -3 -10 0
-22 6 -46 25 -144 38 -263 35 -66 -2 -133 -6 -150 -9 -16 -4 -37 -8 -45 -10
-46 -8 -139 -52 -209 -97 -49 -32 -54 -33 -66 -17 -7 10 -35 42 -61 71 -27 29
-76 84 -109 121 -33 37 -77 86 -98 109 -22 22 -51 56 -65 74 l-26 34 35 26
c55 43 95 87 133 147 10 17 29 39 41 50 12 11 26 35 29 53 7 28 4 36 -22 60
-57 53 -58 60 -57 499 0 221 3 404 6 407 2 3 20 8 39 11 55 9 131 34 146 46 8
6 14 9 14 5 0 -3 23 6 50 21 29 15 50 34 50 43 0 10 22 28 53 44 71 37 210
122 291 179 37 26 69 47 71 47 4 0 26 18 108 90 99 85 337 336 337 354 0 10
-51 57 -116 109 -23 18 -23 17 -61 -32 -37 -49 -46 -53 -84 -37 -11 5 -22 -2
-33 -20 -17 -25 -17 -27 8 -53 41 -43 34 -64 -52 -149 -43 -42 -93 -88 -111
-102 -18 -14 -45 -35 -59 -47 -15 -13 -30 -23 -34 -23 -4 0 -13 -6 -20 -13
-12 -12 -48 -34 -123 -77 -72 -41 -211 -88 -263 -89 -29 0 -57 -3 -60 -5 -4
-2 -33 -7 -65 -10 -32 -4 -76 -10 -100 -14 -97 -17 -207 -1 -242 34 -13 13
-30 21 -38 18 -18 -7 -31 37 -14 48 84 52 156 123 196 194 9 16 19 31 23 34 4
3 18 37 33 75 17 48 34 76 53 89 34 22 56 68 57 116 0 19 11 57 23 84 34 74
50 128 62 202 10 59 8 75 -11 138 -53 174 -210 340 -394 416 -130 54 -306 64
-425 25z"/>
</g>
</svg>
